<svg viewBox="0 0 1024 1024" version="1.1" xmlns="http://www.w3.org/2000/svg"><path  fill-rule="evenodd" d="M149.568 832L200.608 668.672 453.952 668.672 504.992 832 588.512 832 380.64 192.608 278.56 192.608 69.76 832 149.568 832ZM432.608 601.856L221.952 601.856 327.744 261.28 432.608 601.856ZM768.8 377.6C821.8142368 377.6 862.7624832 390.1779584 891.3222464 415.6272544 918.8501088 440.1570304 933.1789632 473.8074752 934.3252448 516.0424512L934.4 521.6 934.3990976 723.8798048 934.46232 728.153584C934.8599232 741.0557824 937.1515232 750.2985792 940.9857024 755.8581376 944.7271424 761.2832256 950.8939392 765.632928 959.7020256 768.810256L963.1292928 769.946608 971.1049536 772.373984 949.4065792 834.3693376 942.9696928 833.533376C906.755408 828.830224 881.1964128 813.074624 867.0895872 786.6148992L865.3145792 783.1029536 864.416 781.136 861.9610528 783.7638624C851.279568 794.693488 839.0995104 803.8726176 825.4427072 811.287024L819.4994432 814.3565376 814.0650432 816.9033888C790.3402528 827.5097664 764.0283008 832.8 735.2 832.8 691.10344 832.8 655.8984896 820.3580896 630.0387328 795.3508544 604.139808 770.3057376 591.2 736.7475552 591.2 695.2 591.2 649.4121408 609.3889696 613.6070816 645.4436288 588.6243264 679.4126528 565.086736 727.0471584 552.9883392 788.2756416 552.058128L796 552 850.4 552 850.40104 525.7289824 850.32528 520.9620192C849.5027968 495.8634816 841.9667232 478.2937696 827.9367168 467.5520448 812.446816 455.6925888 789.3198464 449.6 758.4 449.6 729.4489376 449.6 696.451984 455.7226688 659.4397984 468.019728L651.4471712 470.7493376 643.9561088 473.3760736 620.1316192 407.0818496 637.1141312 401.218816C683.9919264 385.4869472 727.8879616 377.6 768.8 377.6ZM797.6643488 614.3997408L791.4157024 614.4497312C751.4273216 615.10184 722.8221568 622.1671104 705.6275424 635.1792512 687.9876512 648.5283552 679.2 668.0036928 679.2 694.3997408 679.2 743.2971392 702.5338912 766.4 752 766.4 771.408128 766.4 789.9250176 761.429024 807.6732512 751.4300192 823.8671232 742.3067104 837.4526464 730.0886944 848.4821376 714.7138112L850.4 711.904 850.4 614.3997408 797.6643488 614.3997408Z"/></svg>